<svg xmlns="http://www.w3.org/2000/svg" viewBox="0 0 92.604164 92.604166" height="92.604164mm" width="92.604164mm">
  <defs>
    <clipPath id="a">
      <path d="M286.72656 273.90234h55.98438v55.98438h-55.98438zm0 0"/>
    </clipPath>
  </defs>
  <g clip-path="url(#a)" style="opacity:1;stop-opacity:1" transform="matrix(1.65422 0 0 1.65422 -474.309584 -453.09547)">
    <path style="fill:#000;fill-opacity:1;fill-rule:nonzero;stroke:none" d="M314.71484 328.90234c-14.91406 0-27.00781-12.09375-27.00781-27.01172 0-14.91406 12.09375-27.00781 27.00781-27.00781 14.91797 0 27.01172 12.09375 27.01172 27.00781 0 14.91797-12.09375 27.01172-27.01172 27.01172m0-55c-15.45703 0-27.99218 12.53125-27.99218 27.98828 0 15.46094 12.53515 27.99219 27.99218 27.99219 15.46094 0 27.99219-12.53125 27.99219-27.99219 0-15.45703-12.53125-27.98828-27.99219-27.98828"/>
  </g>
  <path style="opacity:1;fill:#fff;fill-opacity:1;fill-rule:nonzero;stroke:none;stop-opacity:1" d="M314.71484 326.44531c-13.55859 0-24.55078-10.99219-24.55078-24.55078 0-13.5625 10.99219-24.55469 24.55078-24.55469 13.5625 0 24.55469 10.99219 24.55469 24.55469 0 13.55859-10.99219 24.55078-24.55469 24.55078m0-51.5625c-14.91406 0-27.00781 12.09375-27.00781 27.01172 0 14.91406 12.09375 27.00781 27.00781 27.00781 14.91797 0 27.01172-12.09375 27.01172-27.00781 0-14.91797-12.09375-27.01172-27.01172-27.01172" transform="matrix(1.65422 0 0 1.65422 -474.309584 -453.09547)"/>
  <path style="opacity:1;fill:#ee7817;fill-opacity:1;fill-rule:nonzero;stroke:none;stop-opacity:1" d="M314.71484 277.33984c-13.55859 0-24.55078 10.99219-24.55078 24.55078 0 13.5625 10.99219 24.55469 24.55078 24.55469 13.5625 0 24.55469-10.99219 24.55469-24.55469 0-13.55859-10.99219-24.55078-24.55469-24.55078" transform="matrix(1.65422 0 0 1.65422 -474.309584 -453.09547)"/>
  <path style="opacity:1;fill:#fff;fill-opacity:1;fill-rule:nonzero;stroke:none;stop-opacity:1" d="M309.24609 291.76172v19.64453h-3.57812v-11.23438c0-1.86328 0-2.41406-1.60156-2.41406h-3.20313v-2.24219h.37891c1.83593-.0312 4.30859-.0586 5.09765-3.7539zM325.83594 308.38281v3.02735h-13.36328v-2.82422c2.5039-1.71875 4.98046-4.07813 6.14453-5.26953 1.07422-1.10547 2.8789-2.9961 2.8789-5.58985 0-1.51172-.7539-2.9375-2.58984-2.9375-2.88281 0-2.79297 3.14063-2.76563 4.53906l-3.66796-.32031c0-2.76562.90234-4.53906 1.66015-5.4414 1.07813-1.25391 2.94141-2.125 5.06641-2.125 3.72265 0 6.3164 2.41406 6.3164 6.14062 0 3.17188-1.94921 5.44531-4.10546 7.39453-.4375.37891-3.05469 2.58985-4.16407 3.40625zm0 0" transform="matrix(1.65422 0 0 1.65422 -474.309584 -453.09547)"/>
</svg>
