<svg xmlns="http://www.w3.org/2000/svg" viewBox="0 0 92.604164 92.597719" height="92.597717mm" width="92.604164mm">
  <defs>
    <clipPath id="a">
      <path d="M208.0625 273.90234h55.98437v55.98438H208.0625Zm0 0"/>
    </clipPath>
  </defs>
  <g clip-path="url(#a)" style="opacity:1;stop-opacity:1" transform="matrix(1.6541 0 0 1.6541 -344.157742 -453.06391)">
    <path style="fill:#000;fill-opacity:1;fill-rule:nonzero;stroke:none" d="M236.05469 328.90234c-14.91797 0-27.00782-12.09375-27.00782-27.01172 0-14.91406 12.08985-27.00781 27.00782-27.00781 14.91797 0 27.01172 12.09375 27.01172 27.00781 0 14.91797-12.09375 27.01172-27.01172 27.01172m0-55c-15.46094 0-27.99219 12.53125-27.99219 27.98828 0 15.46094 12.53125 27.99219 27.99219 27.99219 15.46093 0 27.99218-12.53125 27.99218-27.99219 0-15.45703-12.53125-27.98828-27.99218-27.98828"/>
  </g>
  <path style="opacity:1;fill:#fff;fill-opacity:1;fill-rule:nonzero;stroke:none;stop-opacity:1" d="M236.05469 326.44531c-13.5625 0-24.55469-10.99219-24.55469-24.55078 0-13.5625 10.99219-24.55469 24.55469-24.55469s24.55468 10.99219 24.55468 24.55469c0 13.55859-10.99218 24.55078-24.55468 24.55078m0-51.5625c-14.91797 0-27.00782 12.09375-27.00782 27.01172 0 14.91406 12.08985 27.00781 27.00782 27.00781 14.91797 0 27.01172-12.09375 27.01172-27.00781 0-14.91797-12.09375-27.01172-27.01172-27.01172" transform="matrix(1.6541 0 0 1.6541 -344.157742 -453.06391)"/>
  <path style="opacity:1;fill:#ee7817;fill-opacity:1;fill-rule:nonzero;stroke:none;stop-opacity:1" d="M236.05469 277.33984c-13.5625 0-24.55469 10.99219-24.55469 24.55078 0 13.5625 10.99219 24.55469 24.55469 24.55469s24.55468-10.99219 24.55468-24.55469c0-13.55859-10.99218-24.55078-24.55468-24.55078" transform="matrix(1.6541 0 0 1.6541 -344.157742 -453.06391)"/>
  <path style="opacity:1;fill:#fff;fill-opacity:1;fill-rule:nonzero;stroke:none;stop-opacity:1" d="M222.16406 291.76172v19.64453h-3.57812v-11.23438c0-1.86328 0-2.41406-1.60547-2.41406h-3.19922v-2.24219h.37891c1.83203-.0312 4.30859-.0586 5.09375-3.7539zM238.75 308.38281v3.02735h-13.35938v-2.82422c2.50391-1.71875 4.97657-4.07422 6.14063-5.26953 1.07812-1.10547 2.88281-3 2.88281-5.58985 0-1.51172-.75781-2.9375-2.58984-2.9375-2.88281 0-2.79688 3.14063-2.76563 4.53906l-3.66797-.32031c0-2.76562.90235-4.53906 1.66016-5.44531 1.07422-1.25 2.9375-2.12109 5.0625-2.12109 3.72656 0 6.31641 2.41406 6.31641 6.14062 0 3.17188-1.94922 5.44141-4.10157 7.39453-.4375.37891-3.05859 2.58985-4.16406 3.40625zM252.33203 307.58203h-7.34766l-1.13671 3.82813h-3.91016l6.60156-19.57032h4.15625l6.67969 19.57032h-3.91016zm-.97266-3.1875-2.6875-9.00781-2.71484 9.00781zm0 0" transform="matrix(1.6541 0 0 1.6541 -344.157742 -453.06391)"/>
</svg>
