<svg xmlns="http://www.w3.org/2000/svg" viewBox="0 0 92.604164 82.490701" height="82.4907mm" width="92.604164mm">
  <defs>
    <clipPath id="a">
      <path d="M42.519531 273.90234h62.843749v55.98438H42.519531Zm0 0"/>
    </clipPath>
  </defs>
  <g clip-path="url(#a)" style="opacity:1;stop-opacity:1" transform="translate(-62.6551691 -403.61211) scale(1.47356)">
    <path style="fill:#000;fill-opacity:1;fill-rule:nonzero;stroke:none" d="M103.71484 326.45312c-.88671 1.53516-2.47265 2.44922-4.24609 2.44922H48.414062c-1.773437 0-3.359374-.91406-4.246093-2.44922-.886719-1.53515-.886719-3.36718 0-4.90234l25.527343-44.21875c.886719-1.53516 2.472657-2.44922 4.246094-2.44922 1.773438 0 3.359375.91406 4.246094 2.44922l25.52734 44.21875c.88672 1.53125.88672 3.36719 0 4.90234m.85157-5.39453-25.531254-44.21484c-1.0625-1.84375-2.964844-2.94141-5.09375-2.94141-2.125 0-4.03125 1.09766-5.09375 2.9375l-25.53125 44.21875c-1.0625 1.84375-1.0625 4.04297 0 5.88282 1.066406 1.84375 2.96875 2.9414 5.097656 2.9414H99.46875c2.12891 0 4.03125-1.09765 5.09766-2.9414 1.0625-1.83985 1.0625-4.03907 0-5.88282"/>
  </g>
  <path style="opacity:1;fill:#fff;fill-opacity:1;fill-rule:nonzero;stroke:none;stop-opacity:1" d="M99.46875 326.44531H48.414062c-1.882812 0-3.0625-2.03515-2.121093-3.66797l25.53125-44.21484c.46875-.81641 1.292969-1.22266 2.117187-1.22266.824219 0 1.648438.40625 2.117188 1.22266l25.527346 44.21484c.94531 1.63282-.23438 3.66797-2.11719 3.66797m4.24609-4.89453L78.1875 277.33203c-.886719-1.53516-2.472656-2.44922-4.246094-2.44922-1.773437 0-3.359375.91406-4.246094 2.44922l-25.527343 44.21875c-.886719 1.53516-.886719 3.36719 0 4.90234.886719 1.53516 2.472656 2.44922 4.246093 2.44922H99.46875c1.77344 0 3.35938-.91406 4.24609-2.44922.88672-1.53515.88672-3.37109 0-4.90234" transform="translate(-62.6551691 -403.61211) scale(1.47356)"/>
  <path style="opacity:1;fill:#2ea635;fill-opacity:1;fill-rule:nonzero;stroke:none;stop-opacity:1" d="M76.058594 278.5625c-.46875-.81641-1.292969-1.22266-2.117188-1.22266-.824218 0-1.648437.40625-2.117187 1.22266l-25.53125 44.21484c-.941407 1.63282.238281 3.66797 2.121093 3.66797H99.46875c1.88281 0 3.0625-2.03515 2.11719-3.66797zm0 0" transform="translate(-62.6551691 -403.61211) scale(1.47356)"/>
  <path style="opacity:1;fill:#fff;fill-opacity:1;fill-rule:nonzero;stroke:none;stop-opacity:1" d="M81.828125 300.875v12.33203c-.02734 2.21875-.02734 4.05078-2.109375 5.82422-1.992188 1.74609-4.570312 1.91016-5.902344 1.91016-1.191406 0-2.355468-.13672-3.464844-.52735-2.328124-.80078-3.578124-2.49219-4.019531-3.96094-.25-.85937-.25-1.46875-.277343-3.91015V300.875h3.660156v12.02734c0 .83203-.02734 1.63672.25 2.38672.746094 1.88281 2.800781 2.10547 3.960937 2.10547.585938 0 2.054688-.0273 3.132813-.96875 1.082031-.97266 1.082031-2.08203 1.082031-3.71484V300.875Zm0 0" transform="translate(-62.6551691 -403.61211) scale(1.47356)"/>
</svg>
