<svg xmlns="http://www.w3.org/2000/svg" viewBox="0 0 92.604172 82.495836" height="82.495834mm" width="92.604172mm">
  <defs>
    <clipPath id="a">
      <path d="M126.75391 273.90234h62.83984v55.98438h-62.83984zm0 0"/>
    </clipPath>
  </defs>
  <g clip-path="url(#a)" style="opacity:1;stop-opacity:1" transform="matrix(1.47365 0 0 1.47365 -186.791381 -403.63722)">
    <path style="fill:#000;fill-opacity:1;fill-rule:nonzero;stroke:none" d="M187.94531 326.45312c-.88281 1.53516-2.47265 2.44922-4.24219 2.44922h-51.05859c-1.77344 0-3.35937-.91406-4.24609-2.44922-.88281-1.53515-.88281-3.36718 0-4.90234l25.53125-44.21875c.88672-1.53516 2.47265-2.44922 4.24218-2.44922 1.77344 0 3.35938.91406 4.2461 2.44922l25.52734 44.21875c.88672 1.53125.88672 3.36719 0 4.90234m.85156-5.39453-25.52734-44.21484c-1.06641-1.84375-2.96875-2.94141-5.09766-2.94141-2.125 0-4.03125 1.09766-5.09375 2.9375l-25.53124 44.21875c-1.0625 1.84375-1.0625 4.04297.004 5.88282 1.0625 1.84375 2.96875 2.9414 5.09375 2.9414h51.05859c2.125 0 4.03125-1.09765 5.09375-2.9414 1.0625-1.83985 1.0625-4.03907 0-5.88282"/>
  </g>
  <path style="opacity:1;fill:#fff;fill-opacity:1;fill-rule:nonzero;stroke:none;stop-opacity:1" d="M183.70312 326.44531h-51.05859c-1.88281 0-3.05859-2.03515-2.11719-3.66797l25.52735-44.21484c.47265-.81641 1.29297-1.22266 2.11718-1.22266.82422 0 1.64844.40625 2.1211 1.22266l25.52734 44.21484c.94141 1.63282-.23437 3.66797-2.11719 3.66797m4.24219-4.89453-25.52734-44.21875c-.88672-1.53516-2.47266-2.44922-4.2461-2.44922-1.76953 0-3.35937.91406-4.24609 2.44922l-25.52734 44.21875c-.88672 1.53516-.88672 3.36719.004 4.90234.88282 1.53516 2.47266 2.44922 4.24219 2.44922h51.05859c1.76954 0 3.35547-.91406 4.24219-2.44922.88672-1.53515.88672-3.37109 0-4.90234" transform="matrix(1.47365 0 0 1.47365 -186.791381 -403.63722)"/>
  <path style="opacity:1;fill:#fab800;fill-opacity:1;fill-rule:nonzero;stroke:none;stop-opacity:1" d="M160.29297 278.5625c-.47266-.81641-1.29688-1.22266-2.1211-1.22266-.82031 0-1.64453.40625-2.11718 1.22266l-25.52735 44.21484c-.9414 1.63282.23438 3.66797 2.11719 3.66797h51.05859c1.88282 0 3.0586-2.03515 2.11719-3.66797zm0 0" transform="matrix(1.47365 0 0 1.47365 -186.791381 -403.63722)"/>
  <path style="opacity:1;fill:#fff;fill-opacity:1;fill-rule:nonzero;stroke:none;stop-opacity:1" d="M143.39062 302.80078h6.29688c1.03125 0 2.11719 0 3.20312.29297 1.82422.50391 4.39063 2.14453 4.39063 5.92578 0 2.48828-1.16406 5.16016-4.49609 5.90234-1.03516.23829-2.01172.23829-3.15235.23829h-2.72265v6.32421h-3.51954zm3.51954 2.99219v6.48437h2.51171c.74219 0 1.375 0 1.98438-.16015 2.17187-.53125 2.30078-2.51563 2.30078-3.17578 0-1.375-.60547-2.08985-.92187-2.38282-.875-.73828-2.09375-.76562-3.23047-.76562zM175.10156 311.26953v10.21484h-2.99219v-1.58984c-1.66406 1.64063-3.54296 2.06641-5.10546 2.06641-5.76563 0-8.8086-4.60547-8.8086-9.63282 0-5.875 3.88672-10 9.01953-10 3.89063 0 6.75 2.37891 7.88672 5.50391l-3.33594 1.34766c-.34375-1.03125-1.34765-3.70313-4.52343-3.70313-3.51953 0-5.23828 3.06641-5.23828 6.7461 0 4.10156 2.25 6.45703 5.28906 6.45703 1.96094 0 4.28906-1.03125 4.60547-4.33985h-4.65625v-3.07031zm0 0" transform="matrix(1.47365 0 0 1.47365 -186.791381 -403.63722)"/>
</svg>
