<svg xmlns="http://www.w3.org/2000/svg" viewBox="0 0 92.604164 92.597717" height="92.597717mm" width="92.604164mm">
  <defs>
    <clipPath id="a">
      <path d="M365.38672 273.90234h55.98437v55.98438h-55.98437zm0 0"/>
    </clipPath>
  </defs>
  <g clip-path="url(#a)" transform="matrix(1.6541 0 0 1.6541 -604.388914 -453.06391)">
    <path d="M393.37891 328.90234c-14.91797 0-27.01172-12.09375-27.01172-27.01172 0-14.91406 12.09375-27.00781 27.01172-27.00781 14.91406 0 27.00781 12.09375 27.00781 27.00781 0 14.91797-12.09375 27.01172-27.00781 27.01172m0-55c-15.46094 0-27.99219 12.53125-27.99219 27.98828 0 15.46094 12.53125 27.99219 27.99219 27.99219 15.46093 0 27.99218-12.53125 27.99218-27.99219 0-15.45703-12.53125-27.98828-27.99218-27.98828" style="fill:#000;fill-opacity:1;fill-rule:nonzero;stroke:none"/>
  </g>
  <path d="M393.37891 326.44531c-13.5625 0-24.55469-10.99219-24.55469-24.55078 0-13.5625 10.99219-24.55469 24.55469-24.55469 13.55859 0 24.55468 10.99219 24.55468 24.55469 0 13.55859-10.99609 24.55078-24.55468 24.55078m0-51.5625c-14.91797 0-27.01172 12.09375-27.01172 27.01172 0 14.91406 12.09375 27.00781 27.01172 27.00781 14.91406 0 27.00781-12.09375 27.00781-27.00781 0-14.91797-12.09375-27.01172-27.00781-27.01172" style="fill:#fff;fill-opacity:1;fill-rule:nonzero;stroke:none" transform="matrix(1.6541 0 0 1.6541 -604.388914 -453.06391)"/>
  <path d="M393.37891 277.33984c-13.5625 0-24.55469 10.99219-24.55469 24.55078 0 13.5625 10.99219 24.55469 24.55469 24.55469 13.55859 0 24.55468-10.99219 24.55468-24.55469 0-13.55859-10.99609-24.55078-24.55468-24.55078" style="fill:#eb5791;fill-opacity:1;fill-rule:nonzero;stroke:none" transform="matrix(1.6541 0 0 1.6541 -604.388914 -453.06391)"/>
  <path d="M387.90625 291.75781v19.64844h-3.58203v-11.23438c0-1.86328 0-2.41406-1.60156-2.41406h-3.19922v-2.24219h.375c1.83593-.0312 4.30859-.0586 5.09765-3.75781zM403.15234 294.99219h-7.65625l-.66797 4.33593c.8711-.875 2.26954-1.45703 3.78516-1.45703 3.49219 0 5.96484 2.59375 5.96484 6.55078 0 4.04688-2.64843 7.25-7.30468 7.25-1.3086 0-2.58985-.23437-3.72657-.8164-2.73828-1.45703-2.9414-3.98828-3.02734-4.94922l4.07422-.29297c.0898 2.01172 1.33984 2.91406 2.82422 2.91406.67187 0 1.25-.14453 1.71875-.46484.87109-.58594 1.48437-1.95313 1.48437-3.49609 0-2.44532-1.51562-3.69532-3.26172-3.69532-1.33984 0-2.47265.60938-2.9414 1.83203l-3.28516-.20312 1.39453-10.80078h10.91797zm0 0" style="fill:#fff;fill-opacity:1;fill-rule:nonzero;stroke:none" transform="matrix(1.6541 0 0 1.6541 -604.388914 -453.06391)"/>
</svg>
