<svg xmlns="http://www.w3.org/2000/svg" viewBox="0 0 92.604164 92.604164" height="92.604164mm" width="92.604164mm">
  <defs>
    <clipPath id="a">
      <path d="M525 273h56.10156v57H525Zm0 0"/>
    </clipPath>
  </defs>
  <path d="M577.48437 323.69141c0 1.42187-1.15234 2.57031-2.57031 2.57031h-43.60547c-1.42187 0-2.57031-1.14844-2.57031-2.57031v-43.60547c0-1.41797 1.14844-2.57032 2.57031-2.57032h43.60547c1.41797 0 2.57031 1.15235 2.57031 2.57032zm-2.57031-48.76172h-43.60547c-2.84375 0-5.15625 2.3125-5.15625 5.15625v43.60547c0 2.84375 2.3125 5.15625 5.15625 5.15625h43.60547c2.83985 0 5.15625-2.3125 5.15625-5.15625v-43.60547c0-2.84375-2.3164-5.15625-5.15625-5.15625" style="fill:#fff;fill-opacity:1;fill-rule:nonzero;stroke:none" transform="matrix(1.6541 0 0 1.6541 -868.600282 -453.05746)"/>
  <g clip-path="url(#a)" transform="matrix(1.6541 0 0 1.6541 -868.600282 -453.05746)">
    <path d="M580.07031 323.69141c0 2.84375-2.3164 5.15625-5.15625 5.15625h-43.60547c-2.84375 0-5.15625-2.3125-5.15625-5.15625v-43.60547c0-2.84375 2.3125-5.15625 5.15625-5.15625h43.60547c2.83985 0 5.15625 2.3125 5.15625 5.15625zm-5.15625-49.79297h-43.60547c-3.41406 0-6.1914 2.77734-6.1914 6.1875v43.60547c0 3.41406 2.77734 6.1914 6.1914 6.1914h43.60547c3.41016 0 6.1875-2.77734 6.1875-6.1914v-43.60547c0-3.41016-2.77734-6.1875-6.1875-6.1875" style="fill:#000;fill-opacity:1;fill-rule:nonzero;stroke:none"/>
  </g>
  <path d="M574.91406 277.51562h-43.60547c-1.42187 0-2.57031 1.15235-2.57031 2.57032v43.60547c0 1.42187 1.14844 2.57031 2.57031 2.57031h43.60547c1.41797 0 2.57031-1.14844 2.57031-2.57031v-43.60547c0-1.41797-1.15234-2.57032-2.57031-2.57032" style="fill:#007dc7;fill-opacity:1;fill-rule:nonzero;stroke:none" transform="matrix(1.6541 0 0 1.6541 -868.600282 -453.05746)"/>
  <path d="M532.04297 291.30469h6.5625c2.74609.0312 4.58203.0312 6.39062 1.48828 1.28516 1.05078 2.27735 2.68359 2.27735 5.07812 0 3.9375-2.89063 5.3086-4.0586 5.66016l4.58203 8.375h-4.40625l-4.08203-7.64453h-3.44531v7.64453h-3.82031zm3.82031 3.32812v6.44922h1.34375c1.3125 0 1.80859-.0312 2.53906-.0586.84375-.0312 3.61719-.17578 3.61719-3.17969 0-.4375-.0312-1.95703-1.63281-2.77344-.82031-.40625-1.8125-.4375-4.08594-.4375zM557.54687 291.22266v20.68359h-3.76953v-11.82813c0-1.96093 0-2.54296-1.68359-2.54296h-3.37109v-2.35938h.39843c1.92969-.0312 4.53516-.0586 5.36328-3.95312zM575.20703 305.96094c0 3.76953-3.25 6.21875-7.75391 6.21875-4.71875 0-7.6289-2.63282-7.6289-6.21875 0-3.25 2.35937-4.38282 3.40234-4.8711-2.20703-1.04297-2.66797-3.27734-2.66797-4.5039 0-3.21875 2.66797-5.69922 7.10938-5.69922 4.25781 0 7.04687 2.29687 7.04687 5.88281 0 1.80859-.73437 3.37109-2.69531 4.32031 2.39063 1.19532 3.1875 2.97266 3.1875 4.8711m-11.0625-.1211c0 1.7461 1.22656 2.94141 3.49219 2.94141 1.99219 0 3.46484-1.04297 3.46484-2.97266 0-.36718-.0625-2.9414-3.46484-2.9414-3.27735 0-3.49219 2.32812-3.49219 2.97265m.33984-8.79297c0 .91797.39454 2.72657 3.1836 2.72657 2.42187 0 3.03515-1.56641 3.03515-2.72657 0-2.35937-1.87109-2.78906-3.0664-2.78906-2.60156-.0312-3.15235 1.65235-3.15235 2.78906" style="fill:#fff;fill-opacity:1;fill-rule:nonzero;stroke:none" transform="matrix(1.6541 0 0 1.6541 -868.600282 -453.05746)"/>
</svg>
